<?xml version="1.0" standalone="no"?>
<!DOCTYPE svg PUBLIC "-//W3C//DTD SVG 20010904//EN"
 "http://www.w3.org/TR/2001/REC-SVG-20010904/DTD/svg10.dtd">
<svg version="1.0" xmlns="http://www.w3.org/2000/svg"
 width="900.000000pt" height="900.000000pt" viewBox="0 0 900.000000 900.000000"
 preserveAspectRatio="xMidYMid meet">
<metadata>
Created by potrace 1.10, written by Peter Selinger 2001-2011
</metadata>
<g transform="translate(0.000000,900.000000) scale(0.100000,-0.100000)"
fill="#000000" stroke="none">
<path d="M4130 8464 c-47 -7 -107 -18 -135 -24 -27 -6 -68 -15 -90 -19 -97
-21 -223 -77 -305 -137 -48 -34 -131 -120 -166 -169 -27 -39 -84 -161 -84
-179 0 -8 -7 -42 -16 -76 -12 -48 -15 -101 -12 -232 l3 -170 -29 -24 c-44 -38
-58 -29 -79 51 -28 111 -3 325 61 503 19 53 9 66 -38 49 -252 -91 -420 -311
-420 -550 0 -82 21 -179 54 -248 42 -90 46 -83 -124 -229 -36 -30 -71 -62 -80
-70 -14 -14 -215 -195 -345 -310 -77 -68 -114 -113 -131 -157 -15 -39 -16 -51
-5 -87 7 -22 15 -56 18 -74 6 -37 42 1 -327 -352 -320 -307 -389 -372 -454
-431 -105 -95 -126 -117 -126 -133 0 -21 21 -66 32 -66 4 0 8 -5 8 -11 0 -6
14 -28 30 -49 16 -21 30 -40 30 -43 0 -9 57 -92 120 -177 98 -132 90 -96 90
-395 0 -287 -2 -276 58 -367 16 -24 37 -72 46 -108 20 -73 73 -207 91 -230 7
-8 15 -22 19 -30 12 -26 66 -111 76 -120 3 -3 27 -32 52 -65 100 -131 336
-325 395 -325 19 0 54 29 137 113 62 61 133 125 157 142 24 16 46 33 49 36 36
41 501 279 546 279 30 0 20 -19 -29 -56 -125 -95 -271 -261 -350 -396 -60
-105 -79 -147 -123 -278 -27 -80 -27 -351 0 -430 95 -283 271 -497 539 -654
110 -64 314 -145 430 -170 46 -11 32 14 -71 120 -99 102 -165 181 -218 264
-79 123 -135 246 -154 335 -5 22 -13 53 -19 68 -18 46 -14 320 5 402 18 76 37
134 60 178 8 16 14 33 14 38 0 16 92 161 154 244 69 91 145 173 330 354 373
367 458 470 545 661 21 47 51 153 51 180 0 79 41 201 54 159 2 -8 11 -34 19
-59 39 -115 49 -188 44 -307 -6 -140 -37 -304 -73 -390 -8 -17 -14 -36 -14
-41 0 -6 -6 -23 -14 -39 -8 -15 -22 -46 -32 -68 -9 -22 -21 -47 -25 -55 -4 -8
-18 -35 -31 -60 -19 -38 -115 -201 -168 -285 -8 -13 -35 -56 -60 -95 -25 -39
-53 -83 -62 -98 -10 -15 -22 -36 -28 -47 -6 -11 -26 -47 -45 -80 -57 -102
-135 -271 -135 -294 0 -6 -6 -25 -14 -43 -16 -38 -38 -113 -63 -213 -25 -102
-25 -482 0 -575 31 -115 49 -174 64 -215 61 -164 101 -219 130 -179 8 11 21
28 31 39 9 11 37 45 62 75 125 153 305 330 521 514 19 16 104 82 190 147 116
87 158 125 164 146 4 15 7 242 6 503 -1 381 -4 476 -15 478 -7 2 -30 -32 -55
-80 -70 -137 -135 -244 -228 -373 -24 -33 -49 -68 -56 -77 -6 -10 -32 -47 -57
-83 -66 -95 -195 -269 -226 -305 -30 -32 -51 -38 -60 -16 -6 17 18 154 43 236
56 194 162 410 315 648 10 15 22 36 28 47 6 11 20 35 31 54 45 75 124 240 154
322 39 105 80 273 99 400 18 121 21 379 6 479 -6 36 -14 99 -19 140 -9 70 -15
102 -43 220 -6 25 -14 61 -18 80 -38 170 -156 376 -294 514 -87 87 -174 152
-186 139 -4 -4 -12 -83 -19 -175 -7 -97 -18 -183 -26 -203 -8 -19 -15 -44 -15
-55 0 -11 -4 -28 -9 -38 -5 -9 -26 -53 -47 -97 -21 -44 -53 -100 -71 -125 -73
-96 -190 -202 -279 -250 -21 -11 -46 -25 -54 -29 -108 -61 -256 -97 -428 -107
-102 -5 -122 -9 -120 -22 3 -15 6 -17 68 -45 73 -32 306 -148 323 -161 43 -33
22 -36 -268 -36 -236 0 -285 -2 -285 -14 0 -7 8 -16 18 -19 9 -3 44 -22 77
-41 33 -20 67 -39 75 -43 56 -28 130 -76 130 -83 0 -22 -134 -100 -230 -134
-125 -45 -164 -55 -266 -70 -104 -16 -119 -16 -215 -1 -57 9 -121 23 -141 31
-152 57 -167 64 -448 202 -129 63 -246 124 -260 134 -51 40 -60 66 -60 175 l0
102 88 75 c48 41 125 106 172 143 95 77 119 118 119 211 1 58 -8 64 -57 38
-108 -56 -245 -81 -413 -73 -157 7 -178 17 -131 63 72 70 187 179 317 299 77
71 149 138 160 150 11 11 63 58 115 105 141 125 195 184 209 228 12 35 11 46
-9 101 -36 101 -42 92 225 326 203 177 220 192 279 240 27 22 58 48 70 59 36
32 134 106 140 106 3 0 22 11 42 25 45 31 162 87 224 107 75 26 234 47 464 62
l220 15 35 43 c137 164 292 290 446 361 22 10 53 25 68 33 16 8 35 14 42 14 8
0 29 6 47 14 18 8 78 22 133 31 55 10 106 23 114 31 11 10 13 68 12 320 -1
169 -6 315 -11 324 -5 10 -24 20 -41 24 -63 12 -650 5 -739 -10z m445 -244
c-3 -5 -12 -10 -19 -10 -8 0 -19 -7 -26 -15 -7 -8 -19 -15 -26 -15 -20 0 -132
-52 -245 -113 -167 -90 -358 -265 -516 -473 -124 -163 -172 -203 -188 -154 -9
29 3 75 39 144 116 224 287 389 532 516 53 28 101 50 106 50 6 0 24 6 41 14
46 20 112 38 192 51 91 16 118 17 110 5z m-2575 -3791 c30 -11 64 -23 75 -26
11 -3 34 -11 52 -19 17 -8 38 -14 46 -14 8 0 28 -7 43 -15 16 -8 37 -15 46
-15 10 0 32 -6 50 -14 18 -7 60 -21 93 -31 33 -10 78 -23 100 -30 39 -13 99
-30 212 -61 112 -32 149 -56 106 -70 -16 -5 -61 -27 -191 -93 -92 -47 -230
-147 -353 -258 -33 -29 -68 -53 -79 -53 -34 0 -173 144 -203 210 -4 8 -16 29
-26 45 -40 61 -59 107 -107 258 -18 56 -18 58 1 115 21 64 40 92 64 92 9 0 41
-9 71 -21z"/>
<path d="M6536 8311 c-48 -32 -69 -76 -69 -141 0 -64 13 -93 69 -144 39 -37
39 -41 36 -413 l-2 -241 -35 -42 c-29 -35 -35 -50 -35 -90 0 -60 31 -101 88
-118 67 -20 130 11 158 77 18 43 9 75 -38 134 l-33 41 0 304 0 303 52 48 c29
27 57 61 63 75 27 71 -2 161 -65 205 -42 28 -147 30 -189 2z m151 -93 c29 -27
30 -68 1 -95 -35 -32 -59 -35 -96 -13 -27 16 -32 26 -32 57 0 20 7 45 17 55
23 25 81 24 110 -4z"/>
<path d="M5419 8193 c-80 -62 -102 -91 -94 -126 8 -31 49 -47 74 -28 27 19 40
23 56 17 13 -5 15 -40 15 -236 0 -140 4 -239 10 -251 13 -23 53 -25 74 -3 14
13 16 58 16 333 0 233 -3 320 -12 329 -26 26 -75 13 -139 -35z"/>
<path d="M6080 8209 c-68 -47 -120 -101 -120 -124 0 -45 63 -72 90 -40 7 9 23
15 34 13 21 -3 21 -8 24 -242 1 -156 6 -244 13 -253 6 -7 25 -13 40 -13 22 0
32 6 39 26 6 14 10 152 10 319 0 167 -4 305 -10 319 -14 37 -62 34 -120 -5z"/>
<path d="M4800 7595 c-19 -7 -44 -14 -55 -14 -11 -1 -33 -8 -49 -16 -15 -8
-33 -15 -38 -15 -19 0 -151 -71 -216 -117 -134 -93 -317 -298 -310 -347 2 -14
24 -32 69 -56 100 -53 185 -111 271 -184 102 -87 232 -259 211 -280 -4 -3 -68
-6 -144 -6 -136 0 -169 -4 -169 -21 0 -4 35 -34 77 -65 111 -82 165 -136 242
-239 74 -99 123 -177 174 -274 18 -36 38 -66 45 -69 9 -3 12 148 10 690 l-3
693 -49 3 c-27 2 -71 -4 -97 -12 -26 -9 -53 -16 -59 -16 -13 0 -68 -23 -112
-46 -32 -17 -48 -18 -48 -3 0 42 213 139 304 139 63 0 73 22 66 160 l-5 105
-40 2 c-22 1 -56 -4 -75 -12z"/>
<path d="M6090 7371 c-84 -18 -140 -69 -170 -154 -26 -74 -29 -334 -5 -381 8
-15 15 -34 15 -41 0 -6 21 -33 47 -58 64 -63 133 -85 218 -68 154 31 210 128
209 361 -1 177 -34 259 -126 313 -47 27 -132 40 -188 28z m148 -143 c35 -38
42 -74 42 -207 0 -92 -4 -139 -15 -164 -17 -40 -77 -87 -113 -87 -34 0 -78 26
-106 63 -25 33 -26 38 -26 188 l0 154 31 38 c30 36 32 37 98 37 57 0 71 -3 89
-22z"/>
<path d="M5460 7350 c-14 -11 -29 -23 -35 -28 -101 -76 -117 -100 -95 -141 13
-26 65 -28 92 -5 14 14 20 14 33 4 13 -10 15 -49 15 -244 0 -167 3 -235 12
-244 19 -19 66 -15 78 7 6 12 10 135 10 330 0 268 -2 312 -16 325 -21 22 -64
20 -94 -4z"/>
<path d="M7400 7080 c-30 -14 -58 -39 -85 -75 -39 -52 -42 -54 -88 -55 -27 0
-65 -8 -85 -17 -31 -14 -113 -72 -132 -93 -21 -24 -91 -69 -120 -78 -19 -6
-99 -13 -178 -17 -78 -3 -149 -8 -156 -11 -21 -8 -26 -40 -9 -63 13 -20 24
-21 184 -21 199 0 205 2 331 110 123 104 185 111 253 26 51 -62 90 -80 170
-80 78 0 112 17 163 84 23 30 26 44 26 107 0 64 -3 77 -30 115 -54 77 -159
107 -244 68z m134 -131 c33 -39 33 -62 -1 -94 -37 -34 -80 -33 -110 2 -30 34
-29 54 3 92 18 21 35 31 54 31 19 0 36 -10 54 -31z"/>
<path d="M6073 6501 c-18 -5 -50 -21 -70 -37 -91 -69 -106 -118 -101 -331 3
-167 4 -169 61 -245 49 -65 90 -83 188 -83 81 0 89 2 136 34 59 40 86 79 103
151 18 71 18 260 1 330 -15 62 -62 127 -116 160 -38 24 -147 35 -202 21z m161
-138 c39 -29 48 -75 44 -224 -3 -123 -5 -139 -27 -170 -13 -19 -41 -43 -62
-53 -38 -19 -40 -19 -80 -1 -22 11 -52 35 -65 54 -23 34 -24 44 -24 185 0 132
2 152 20 182 12 18 33 37 48 43 37 14 117 6 146 -16z"/>
<path d="M5460 6480 c-39 -31 -43 -34 -82 -63 -54 -42 -71 -71 -57 -101 15
-32 45 -39 85 -20 18 9 38 13 43 9 7 -4 11 -84 11 -228 0 -242 5 -267 55 -267
54 0 55 5 55 345 0 272 -2 316 -16 329 -21 22 -64 20 -94 -4z"/>
<path d="M3185 6459 c-121 -5 -274 -12 -340 -16 l-120 -8 -3 -33 c-2 -20 3
-41 11 -50 38 -44 77 -133 77 -175 0 -44 -2 -46 -155 -198 -85 -84 -155 -157
-155 -161 0 -15 27 -8 121 33 144 62 359 161 389 180 8 5 26 14 39 19 31 14
193 118 206 133 54 62 200 157 280 181 98 29 165 68 165 95 0 13 -167 13 -515
0z m-95 -182 c0 -15 -16 -37 -42 -56 -14 -10 -19 -9 -33 13 -25 38 -13 56 35
56 26 0 40 -4 40 -13z"/>
<path d="M7301 6389 c-46 -20 -96 -68 -107 -101 -3 -11 -17 -23 -31 -29 -13
-5 -136 -9 -271 -9 -208 0 -251 -2 -270 -16 -27 -19 -28 -45 -3 -68 22 -20 62
-23 347 -25 l211 -1 27 -38 c34 -50 74 -79 130 -94 88 -23 194 36 230 130 22
57 20 88 -8 147 -27 59 -46 77 -106 104 -57 26 -93 26 -149 0z m124 -130 c42
-37 45 -70 10 -104 -57 -58 -148 -6 -130 75 5 25 47 59 72 60 7 0 28 -14 48
-31z"/>
<path d="M7322 5720 c-22 -3 -49 -20 -78 -49 -51 -52 -67 -56 -336 -67 -153
-6 -169 -5 -195 12 -39 25 -120 25 -155 -1 -37 -28 -62 -85 -53 -124 4 -17 21
-47 40 -66 29 -32 38 -35 87 -35 53 0 57 2 110 55 31 30 66 56 79 59 13 3 104
7 201 10 l178 6 37 -34 c50 -44 75 -56 117 -56 69 0 115 32 142 99 14 36 14
47 3 86 -24 80 -90 119 -177 105z m69 -111 c29 -29 11 -78 -29 -79 -47 0 -67
47 -35 82 21 23 38 23 64 -3z"/>
<path d="M5423 5572 c-43 -32 -87 -71 -96 -86 -17 -25 -17 -29 -2 -52 23 -35
42 -40 77 -20 57 34 58 29 58 -219 l0 -226 25 -25 c24 -24 26 -24 55 -9 l30
16 0 318 0 318 -23 21 c-13 12 -28 22 -34 22 -6 0 -47 -26 -90 -58z"/>
<path d="M6038 5610 c-56 -30 -103 -84 -121 -141 -13 -38 -17 -89 -17 -199 0
-128 3 -154 21 -195 75 -169 274 -208 403 -80 44 43 53 60 66 115 18 81 19
245 1 326 -15 72 -67 140 -131 173 -55 28 -169 29 -222 1z m184 -117 c47 -28
58 -69 58 -215 0 -147 -10 -182 -62 -222 -62 -47 -133 -30 -180 42 -15 23 -18
51 -18 183 l0 156 37 36 c32 33 42 37 86 37 29 0 61 -7 79 -17z"/>
<path d="M7425 4925 l-49 -45 -166 0 c-127 0 -172 -4 -194 -15 -15 -8 -35 -15
-43 -15 -7 0 -47 -33 -88 -74 -41 -40 -88 -79 -106 -85 -18 -6 -80 -12 -138
-12 -58 -1 -140 -4 -181 -8 -73 -6 -75 -7 -78 -34 -6 -54 3 -57 207 -57 145 0
192 3 215 15 15 8 32 15 38 15 16 0 71 43 123 96 28 28 65 56 84 63 19 6 94
11 168 11 141 0 169 -7 207 -49 43 -47 115 -64 173 -39 39 17 60 40 79 88 15
36 15 47 3 82 -7 23 -29 56 -48 75 -31 30 -39 33 -95 33 -58 -1 -64 -3 -111
-45z m137 -62 c26 -23 23 -61 -6 -74 -51 -23 -87 31 -49 73 20 22 31 23 55 1z"/>
<path d="M5440 4709 c-105 -81 -110 -87 -110 -119 0 -20 8 -34 24 -45 22 -15
27 -15 55 -1 16 9 37 16 46 16 18 0 18 -5 15 -270 -2 -232 3 -253 57 -248 33
3 39 7 44 33 9 39 9 611 0 650 -5 25 -12 30 -36 32 -23 2 -46 -10 -95 -48z"/>
<path d="M6109 4632 c-65 -38 -139 -111 -139 -137 0 -25 29 -55 52 -55 9 0 30
8 47 18 28 15 33 15 41 2 5 -8 10 -85 10 -171 0 -170 8 -204 58 -237 23 -15
76 -18 517 -22 l490 -5 62 -32 c66 -35 119 -42 170 -22 103 39 94 183 -15 225
-50 19 -81 11 -143 -38 l-37 -28 -495 0 -495 0 -6 23 c-3 12 -6 120 -6 240 0
183 -3 222 -16 242 -20 31 -37 30 -95 -3z"/>
<path d="M5415 3827 c-71 -56 -80 -67 -83 -99 -4 -52 22 -65 85 -44 26 9 49
13 52 10 3 -3 4 -110 3 -238 -4 -271 0 -289 55 -284 33 3 39 7 44 33 9 41 9
624 0 655 -5 20 -14 25 -41 27 -29 2 -48 -7 -115 -60z"/>
<path d="M7292 3725 c-18 -8 -50 -28 -70 -45 l-37 -30 -618 0 c-549 0 -623 -2
-653 -16 -46 -22 -47 -57 -2 -80 29 -15 88 -16 644 -13 l612 4 29 -23 c91 -73
107 -82 143 -82 76 0 159 93 146 163 -18 95 -116 156 -194 122z m82 -111 c21
-21 20 -37 -5 -60 -19 -17 -23 -17 -47 -3 -32 18 -39 41 -17 63 21 20 49 21
69 0z"/>
<path d="M6672 3230 c-23 -16 -46 -39 -52 -50 -6 -12 -26 -30 -43 -40 -29 -18
-52 -20 -248 -20 -243 0 -275 -4 -292 -34 -8 -14 -13 -93 -15 -242 l-4 -222
-38 -31 c-23 -18 -45 -48 -56 -76 -15 -40 -15 -51 -4 -88 8 -23 22 -53 33 -67
24 -32 83 -59 129 -60 70 0 143 65 149 135 6 75 0 92 -48 142 l-48 48 -3 170
c-2 102 1 181 7 198 l11 27 213 0 214 0 19 -26 c47 -64 58 -76 92 -93 59 -30
94 -33 148 -15 116 38 175 159 127 262 -36 78 -92 112 -186 112 -55 0 -70 -4
-105 -30z m169 -113 c28 -34 24 -71 -12 -101 -37 -31 -58 -33 -93 -5 -20 16
-26 29 -26 58 0 74 84 105 131 48z m-722 -626 c29 -40 26 -56 -14 -81 -32 -20
-36 -20 -59 -5 -31 21 -39 45 -27 78 18 46 70 50 100 8z"/>
<path d="M5439 2994 c-57 -18 -119 -70 -150 -126 -23 -41 -24 -53 -24 -223 0
-170 1 -182 23 -222 29 -52 110 -114 172 -130 80 -22 189 15 239 79 53 68 56
82 56 279 l0 187 -37 53 c-39 58 -78 86 -143 106 -49 16 -77 15 -136 -3z m166
-144 c40 -38 56 -186 34 -320 -8 -51 -16 -70 -37 -87 -65 -54 -132 -51 -188 8
l-29 30 0 159 c0 145 2 161 21 187 32 43 62 55 123 49 36 -3 61 -12 76 -26z"/>
<path d="M2294 1611 c-36 -9 -70 -31 -89 -59 -21 -29 -62 -163 -86 -277 -12
-58 -53 -231 -74 -310 -38 -145 -53 -217 -61 -311 -7 -71 7 -100 61 -134 31
-19 49 -20 395 -20 326 0 365 2 393 18 62 35 86 71 110 167 9 33 21 80 28 105
7 25 15 63 19 85 8 44 26 118 43 179 18 63 7 66 -229 66 -196 0 -204 -1 -229
-22 -19 -18 -28 -38 -36 -87 -5 -35 -8 -70 -5 -78 4 -10 31 -13 109 -13 134 0
147 -8 128 -77 -8 -26 -16 -65 -19 -86 -7 -65 -17 -67 -277 -67 -126 0 -236 4
-244 9 -15 10 -12 37 25 184 8 31 20 83 28 115 8 31 20 77 27 102 7 25 16 63
20 85 23 114 42 183 58 210 l17 30 251 3 c295 3 286 6 258 -88 -26 -85 -21
-91 71 -88 56 2 79 7 85 18 20 40 43 148 43 210 1 59 -2 72 -23 94 -14 14 -41
30 -60 36 -41 11 -689 12 -737 1z"/>
<path d="M4318 1611 c-95 -19 -149 -102 -189 -296 -8 -37 -18 -83 -49 -210 -7
-27 -18 -72 -26 -100 -53 -197 -74 -299 -74 -354 0 -56 30 -106 81 -131 36
-19 60 -20 364 -20 301 0 329 1 363 19 42 22 82 62 105 106 16 31 32 92 91
333 8 31 20 80 26 107 7 28 16 68 21 90 17 81 37 163 49 201 7 21 13 69 14
106 0 66 -1 70 -36 104 -24 25 -50 39 -79 45 -53 10 -609 10 -661 0z m535
-194 c5 -14 -8 -101 -18 -118 -4 -5 -10 -30 -15 -57 -5 -26 -17 -76 -26 -112
-8 -36 -22 -90 -29 -120 -25 -104 -38 -155 -51 -199 -8 -25 -14 -54 -14 -67 0
-12 -11 -29 -25 -38 -21 -14 -55 -16 -237 -14 l-213 3 -3 30 c-2 16 4 57 13
90 25 91 62 237 75 295 15 67 32 135 46 180 8 25 14 55 14 66 0 12 9 33 21 48
l20 26 219 0 c172 0 219 -3 223 -13z"/>
<path d="M5575 1610 c-111 -17 -202 -84 -251 -182 -25 -50 -54 -147 -98 -323
-8 -33 -20 -80 -27 -105 -7 -25 -16 -63 -20 -85 -5 -22 -15 -69 -24 -105 -26
-105 -28 -134 -14 -176 18 -50 44 -84 90 -112 36 -21 44 -22 347 -22 l311 0
19 42 c43 95 51 118 46 133 -5 13 -43 15 -269 15 -242 0 -265 1 -286 19 -22
18 -23 21 -12 87 11 67 20 107 48 209 8 28 21 79 30 115 9 36 23 88 31 116 8
28 14 57 14 65 0 24 50 89 78 102 17 8 118 14 282 17 l255 5 19 40 c20 42 36
96 39 130 2 20 -4 20 -278 21 -154 1 -302 -2 -330 -6z"/>
<path d="M6446 1613 c-86 -13 -149 -98 -186 -253 -15 -59 -31 -123 -46 -174
-19 -66 -18 -132 4 -168 33 -57 59 -62 362 -68 311 -6 284 4 260 -90 -31 -121
-42 -150 -60 -160 -11 -6 -135 -10 -315 -10 l-296 0 -26 -27 c-14 -16 -29 -37
-34 -48 -5 -11 -20 -39 -33 -62 -13 -23 -21 -44 -18 -47 3 -4 185 -6 404 -6
372 0 401 1 436 19 69 36 115 109 142 231 8 36 21 92 46 191 8 30 14 68 14 83
0 47 -30 95 -71 116 -35 18 -60 20 -298 20 -322 0 -301 -16 -243 180 9 30 23
61 31 68 11 9 87 12 303 12 326 0 306 -5 349 89 11 25 25 56 31 68 6 11 7 26
4 32 -7 11 -691 14 -760 4z"/>
<path d="M3735 1379 c-43 -7 -55 -15 -98 -63 -52 -59 -78 -71 -74 -33 2 19 -3
22 -34 25 -46 4 -180 -24 -194 -40 -11 -13 -26 -70 -60 -233 -9 -44 -23 -105
-30 -135 -7 -30 -21 -91 -30 -135 -9 -44 -23 -105 -31 -135 -8 -30 -15 -71
-17 -90 l-2 -35 105 -3 c97 -3 106 -1 123 19 9 12 17 30 17 42 0 11 6 43 14
71 23 81 43 164 62 256 24 117 40 144 146 254 52 54 60 58 89 52 18 -3 35 -8
37 -11 3 -3 0 -29 -6 -57 -7 -29 -13 -66 -15 -83 l-2 -30 87 -3 c49 -1 97 2
107 8 19 10 35 53 60 163 14 61 14 90 -1 124 -32 72 -114 96 -253 72z"/>
</g>
</svg>
